<?xml version="1.0" encoding="utf-8"?>
<!-- Generator: Adobe Illustrator 18.1.1, SVG Export Plug-In . SVG Version: 6.00 Build 0)  -->
<!DOCTYPE svg PUBLIC "-//W3C//DTD SVG 1.1//EN" "http://www.w3.org/Graphics/SVG/1.1/DTD/svg11.dtd">
<svg version="1.1" id="Laag_1" xmlns="http://www.w3.org/2000/svg" xmlns:xlink="http://www.w3.org/1999/xlink" x="0px" y="0px"
	 width="512px" height="512px" viewBox="0 0 512 512" enable-background="new 0 0 512 512" xml:space="preserve">
<path d="M256.1,0C114.5,0,0.2,114.3,0.2,255.9c0,141.6,114.3,255.9,255.9,255.9S512,397.5,512,255.9C510.4,114.3,396.1,0,256.1,0z
	 M256.1,468.3C138.6,468.3,42,371.8,42,254.3c0-117.5,96.6-214.1,214.1-214.1s214.1,96.6,214.1,214.1
	C470.2,373.4,373.6,468.3,256.1,468.3z M256.1,98.2c-86.9,0-157.7,70.8-157.7,157.7s70.8,157.7,157.7,157.7
	c86.9,0,157.7-70.8,157.7-157.7C412.2,167.4,343,98.2,256.1,98.2z M256.1,370.2c-64.4,0-115.9-51.5-115.9-115.9
	s51.5-115.9,115.9-115.9S372,189.9,372,254.3C372,318.7,318.9,370.2,256.1,370.2z M256.1,193.1c33.8,0,61.2,27.4,61.2,61.2
	s-27.4,61.2-61.2,61.2s-61.2-27.4-61.2-61.2S222.3,193.1,256.1,193.1z"/>
<g>
</g>
<g>
</g>
<g>
</g>
<g>
</g>
<g>
</g>
<g>
</g>
<g>
</g>
<g>
</g>
<g>
</g>
<g>
</g>
<g>
</g>
<g>
</g>
<g>
</g>
<g>
</g>
<g>
</g>
</svg>
