<svg version="1.1" xmlns="http://www.w3.org/2000/svg" width="66" height="74">
<path d="M0,0 L5,0 L10,4 L10,12 L-4,12 L-4,4 L-1,3 Z M1,2 Z " fill="#000000" transform="translate(29,8)"/>
<path d="M0,0 L7,0 L8,6 L10,7 L22,7 L24,6 L25,0 L32,0 L33,2 L33,9 L26,19 L25,20 L5,20 L6,22 L23,23 L20,27 L6,28 L5,30 L17,31 L18,38 L25,36 L32,27 L33,27 L33,40 L30,43 L1,43 L-1,41 L-1,1 Z M6,12 L5,15 L26,15 L26,12 Z " fill="#000000" transform="translate(16,15)"/>
<path d="M0,0 L4,2 L3,6 L-8,22 L-11,22 L-13,21 L-12,17 L-1,1 Z " fill="#000000" transform="translate(52,23)"/>
<path d="M0,0 L5,3 L3,6 L-1,5 Z " fill="#000000" transform="translate(36,45)"/>
</svg>
